<svg width="187" height="73" viewBox="0 0 187 73" fill="none" xmlns="http://www.w3.org/2000/svg">
<mask id="mask0_232_172" style="mask-type:luminance" maskUnits="userSpaceOnUse" x="0" y="0" width="187" height="72">
<path d="M187 0H0V71.9231H187V0Z" fill="white"/>
</mask>
<g mask="url(#mask0_232_172)">
<path d="M17.0699 29.527C16.3788 29.2872 15.6363 29.0853 14.8412 28.9202C14.045 28.7563 13.2566 28.6726 12.4772 28.6726C9.53395 28.6726 7.34217 29.3631 5.90074 30.745C4.46043 32.1259 3.73916 34.3188 3.73916 37.3203C3.73916 38.642 3.94939 39.821 4.36985 40.8572C4.79032 41.8934 5.39082 42.7712 6.17136 43.4918C6.9519 44.2123 7.89012 44.7678 8.98601 45.1582C10.0819 45.5486 11.2896 45.7438 12.6114 45.7438C14.0237 45.7438 15.397 45.5006 16.7333 45.0132C18.0696 44.5258 19.189 43.8866 20.0892 43.0936L21.6648 45.6992C21.2443 46.0583 20.7187 46.4331 20.0892 46.8224C19.4585 47.2116 18.7305 47.5786 17.9041 47.9233C17.0788 48.2679 16.1618 48.5445 15.1577 48.7542C14.1501 48.9628 13.0632 49.0688 11.8923 49.0688C9.941 49.0688 8.22224 48.791 6.73496 48.2378C5.2488 47.6846 4.00978 46.8904 3.019 45.8564C2.02823 44.8236 1.27676 43.581 0.766839 42.1277C0.255797 40.6754 0.00195312 39.0659 0.00195312 37.2991C0.00195312 35.4119 0.263625 33.7354 0.789204 32.2676C1.31478 30.8008 2.07296 29.5716 3.06373 28.5834C4.05451 27.5952 5.25551 26.8389 6.66675 26.3147C8.07687 25.7904 9.6536 25.5283 11.3947 25.5283C13.6178 25.5283 15.426 25.7235 16.8227 26.1128C18.2194 26.5021 19.397 26.9371 20.3587 27.4156L20.3139 27.5494V33.7945H17.0699V29.527Z" fill="white"/>
<path d="M48.8446 28.4927C47.856 28.4927 46.9212 28.5975 46.0389 28.8072C45.1555 29.0169 44.3772 29.3683 43.704 29.8624C43.0297 30.3565 42.4761 31.0012 42.0422 31.7943C41.6084 32.5884 41.3322 33.5689 41.2125 34.7367H55.175C55.0241 32.7602 54.3889 31.2254 53.2662 30.1323C52.1434 29.0392 50.6707 28.4927 48.8446 28.4927ZM58.3274 45.6988C57.7861 46.1784 57.1487 46.6268 56.4129 47.0462C55.6771 47.4656 54.8731 47.8248 54.0042 48.1248C53.132 48.4237 52.2251 48.6557 51.279 48.8208C50.333 48.9848 49.3791 49.0684 48.4196 49.0684C46.617 49.0684 45.0269 48.7907 43.6447 48.2375C42.2637 47.6842 41.1074 46.8901 40.177 45.8561C39.2455 44.8232 38.5399 43.5874 38.0601 42.1496C37.5793 40.7119 37.3389 39.0957 37.3389 37.2976C37.3389 35.4104 37.6017 33.7339 38.1272 32.2661C38.6528 30.7993 39.411 29.5713 40.4018 28.5819C41.3925 27.5937 42.5935 26.8374 44.0048 26.3132C45.4149 25.789 46.9916 25.5269 48.7328 25.5269C49.9941 25.5269 51.2399 25.6919 52.4711 26.021C53.7012 26.3511 54.7903 26.9724 55.7364 27.8859C56.6824 28.7994 57.4104 30.0576 57.9203 31.6593C58.4303 33.2621 58.6103 35.3368 58.4616 37.881H41.0761C41.0761 40.5758 41.8029 42.5913 43.2555 43.9231C44.7082 45.256 46.6472 45.9219 49.0727 45.9219C49.8812 45.9219 50.6819 45.8249 51.4747 45.6297C52.2687 45.4356 53.0257 45.2025 53.7448 44.9337C54.4627 44.6648 55.099 44.3659 55.6536 44.0358C56.2083 43.7067 56.6343 43.4067 56.934 43.1379L58.3274 45.6988Z" fill="white"/>
</g>
<path d="M96.9671 38.3764H94.4913V48.5288H91.0225V26.0669H94.4913V35.6805H96.9671L105.839 26.0669H110.074L100.121 36.7145L108.317 45.5194H111.245V48.5288H106.606L96.9671 38.3764Z" fill="white"/>
<mask id="mask1_232_172" style="mask-type:luminance" maskUnits="userSpaceOnUse" x="0" y="0" width="187" height="72">
<path d="M187 0H0V71.9231H187V0Z" fill="white"/>
</mask>
<g mask="url(#mask1_232_172)">
<path d="M135.612 45.923C136.451 45.923 137.232 45.788 137.953 45.5181C138.673 45.2493 139.303 44.9046 139.844 44.4852C140.385 44.0659 140.835 43.6097 141.195 43.1155C141.555 42.6214 141.826 42.1496 142.006 41.7001V38.5558C140.445 38.2859 139.003 38.1509 137.682 38.1509C136.36 38.1509 135.219 38.2937 134.259 38.5781C133.298 38.8625 132.546 39.3042 132.006 39.9032C131.465 40.5022 131.196 41.2818 131.196 42.2388C131.196 43.1958 131.533 44.0893 132.209 44.8221C132.885 45.556 134.017 45.923 135.609 45.923M128.943 27.819C130.233 27.0705 131.69 26.5318 133.311 26.2016C134.933 25.8726 136.523 25.7075 138.086 25.7075C139.65 25.7075 140.871 25.9473 141.847 26.4258C142.822 26.9055 143.588 27.5267 144.144 28.2908C144.699 29.0548 145.074 29.9237 145.27 30.8964C145.465 31.8701 145.562 32.8505 145.562 33.8388C145.562 34.9776 145.531 36.19 145.471 37.4783C145.411 38.7655 145.366 40.0538 145.336 41.3421C145.336 42.84 145.427 44.2622 145.607 45.6096H148.624V48.5297H142.676L142.273 45.1601H142.047C141.867 45.43 141.597 45.7746 141.234 46.1929C140.872 46.6134 140.398 47.0239 139.811 47.4288C139.225 47.8326 138.509 48.1861 137.666 48.4851C136.823 48.784 135.829 48.9346 134.683 48.9346C132.456 48.9346 130.694 48.3657 129.397 47.2269C128.104 46.0892 127.455 44.531 127.455 42.5556C127.455 41.0275 127.794 39.756 128.472 38.7365C129.149 37.7181 130.121 36.9396 131.386 36.4008C132.652 35.8621 134.179 35.5464 135.972 35.4572C137.763 35.3669 139.774 35.4873 142.002 35.8175C142.152 34.44 142.175 33.2945 142.071 32.3809C141.966 31.4674 141.724 30.7413 141.347 30.2026C140.97 29.6638 140.444 29.2813 139.766 29.0571C139.087 28.8329 138.251 28.7202 137.258 28.7202C135.901 28.7202 134.605 28.9076 133.371 29.2824C132.135 29.6571 131.035 30.0386 130.072 30.4279L128.941 27.8223L128.943 27.819Z" fill="white"/>
<path d="M176.731 28.8517C175.831 28.8517 174.981 29.0157 174.186 29.3447C173.39 29.6726 172.684 30.1054 172.069 30.6442C171.453 31.1818 170.95 31.7796 170.56 32.4366C170.169 33.0936 169.93 33.7505 169.839 34.4075V44.6234C170.499 45.0718 171.243 45.4232 172.069 45.6775C172.893 45.9318 173.983 46.0578 175.333 46.0578C177.737 46.0578 179.657 45.2748 181.098 43.7055C182.539 42.1372 183.26 39.844 183.26 36.8268C183.26 34.2882 182.757 32.3239 181.751 30.9353C180.745 29.5466 179.072 28.8517 176.729 28.8517M166.369 33.9279C166.369 33.658 166.362 33.3066 166.347 32.8716C166.331 32.4377 166.309 31.9893 166.279 31.5242C166.25 31.0602 166.212 30.604 166.167 30.1545C166.122 29.7061 166.069 29.3157 166.008 28.9867H162.991V26.0666H168.982L169.431 29.2109H169.656C170.468 28.1635 171.496 27.2868 172.741 26.583C173.987 25.8803 175.511 25.5278 177.312 25.5278C180.524 25.5278 182.942 26.4112 184.563 28.178C186.185 29.9459 186.996 32.8359 186.996 36.8491C186.996 38.7353 186.717 40.4362 186.163 41.9476C185.606 43.4601 184.818 44.7406 183.799 45.7879C182.778 46.8364 181.546 47.645 180.105 48.2139C178.664 48.7816 177.072 49.0672 175.33 49.0672C174.699 49.0672 174.137 49.0449 173.641 49.0003C173.147 48.9556 172.695 48.8954 172.291 48.8207C171.886 48.7459 171.488 48.6489 171.097 48.5284C170.707 48.4091 170.287 48.2585 169.836 48.0789V57.513H166.368V33.9279H166.369Z" fill="white"/>
</g>
<path d="M71.7336 0L71.6777 13.0959L75.056 13.1517V0.0557699L71.7336 0Z" fill="white"/>
<path d="M75.056 32.7503L71.6777 32.6935L71.7336 19.5864L75.056 19.6433V32.7503Z" fill="white"/>
<path d="M75.056 52.3372L71.6777 52.2803L71.7336 39.1855L75.056 39.2413V52.3372Z" fill="white"/>
<path d="M71.6777 71.8677L75.056 71.9235V58.8276L71.7336 58.7729L71.6777 71.8677Z" fill="white"/>
</svg>
