<svg width="104" height="40" viewBox="0 0 104 40" fill="none" xmlns="http://www.w3.org/2000/svg">
<g clip-path="url(#clip0_148_191)">
<mask id="mask0_148_191" style="mask-type:luminance" maskUnits="userSpaceOnUse" x="0" y="0" width="104" height="40">
<path d="M104 0H0V40H104V0Z" fill="white"/>
</mask>
<g mask="url(#mask0_148_191)">
<path d="M9.493 16.4217C9.10866 16.2883 8.6957 16.176 8.25352 16.0842C7.81072 15.993 7.37226 15.9465 6.93879 15.9465C5.3019 15.9465 4.08295 16.3305 3.2813 17.0991C2.48027 17.867 2.07913 19.0866 2.07913 20.7559C2.07913 21.491 2.19605 22.1467 2.42989 22.723C2.66373 23.2992 2.9977 23.7874 3.4318 24.1882C3.8659 24.5889 4.38769 24.8978 4.99717 25.1149C5.60664 25.332 6.27831 25.4406 7.01342 25.4406C7.7989 25.4406 8.56261 25.3054 9.30581 25.0343C10.049 24.7632 10.6715 24.4078 11.1722 23.9667L12.0485 25.4158C11.8146 25.6155 11.5223 25.824 11.1722 26.0405C10.8214 26.257 10.4165 26.461 9.95695 26.6527C9.49798 26.8444 8.988 26.9983 8.42952 27.1149C7.86918 27.2309 7.26467 27.2898 6.61353 27.2898C5.52828 27.2898 4.5724 27.1353 3.74525 26.8277C2.91872 26.52 2.22964 26.0783 1.67862 25.5033C1.1276 24.9288 0.709672 24.2378 0.426078 23.4295C0.141862 22.6218 0.000686646 21.7267 0.000686646 20.7441C0.000686646 19.6945 0.146215 18.7622 0.438516 17.9458C0.730817 17.1301 1.15248 16.4465 1.70349 15.8969C2.25451 15.3473 2.92245 14.9267 3.70731 14.6351C4.49155 14.3436 5.36845 14.1978 6.33677 14.1978C7.57314 14.1978 8.57878 14.3063 9.35556 14.5228C10.1323 14.7393 10.7872 14.9813 11.3221 15.2474L11.2972 15.3218V18.795H9.493V16.4217Z" fill="black"/>
<path d="M27.1641 15.8463C26.6143 15.8463 26.0944 15.9046 25.6037 16.0212C25.1124 16.1378 24.6795 16.3332 24.3051 16.6081C23.9301 16.8829 23.6223 17.2414 23.3809 17.6825C23.1396 18.1241 22.986 18.6694 22.9195 19.3189H30.6847C30.6008 18.2197 30.2475 17.3661 29.6231 16.7582C28.9987 16.1503 28.1797 15.8463 27.1641 15.8463ZM32.4379 25.4155C32.1369 25.6822 31.7824 25.9316 31.3732 26.1648C30.964 26.3981 30.5168 26.5978 30.0336 26.7647C29.5485 26.9309 29.0441 27.06 28.518 27.1518C27.9918 27.243 27.4613 27.2895 26.9277 27.2895C25.9252 27.2895 25.0408 27.135 24.2722 26.8273C23.5041 26.5197 22.861 26.078 22.3436 25.5029C21.8255 24.9285 21.4331 24.2412 21.1663 23.4416C20.8989 22.642 20.7652 21.7431 20.7652 20.7432C20.7652 19.6936 20.9113 18.7612 21.2036 17.9449C21.4959 17.1291 21.9176 16.4461 22.4686 15.8959C23.0196 15.3463 23.6876 14.9257 24.4724 14.6342C25.2566 14.3426 26.1336 14.1968 27.1019 14.1968C27.8034 14.1968 28.4962 14.2886 29.1809 14.4716C29.8651 14.6553 30.4708 15.0008 30.9969 15.5088C31.5231 16.0169 31.928 16.7166 32.2115 17.6074C32.4951 18.4988 32.5953 19.6526 32.5126 21.0676H22.8436C22.8436 22.5663 23.2479 23.6872 24.0557 24.4279C24.8636 25.1692 25.942 25.5395 27.2909 25.5395C27.7406 25.5395 28.1859 25.4856 28.6268 25.377C29.0684 25.2691 29.4894 25.1394 29.8893 24.9899C30.2886 24.8404 30.6424 24.6742 30.9509 24.4906C31.2594 24.3076 31.4963 24.1407 31.663 23.9912L32.4379 25.4155Z" fill="black"/>
</g>
<path d="M53.9283 21.343H52.5513V26.9892H50.6222V14.4971H52.5513V19.8437H53.9283L58.8625 14.4971H61.2177L55.6821 20.4187L60.2407 25.3156H61.8689V26.9892H59.2892L53.9283 21.343Z" fill="black"/>
<mask id="mask1_148_191" style="mask-type:luminance" maskUnits="userSpaceOnUse" x="0" y="0" width="104" height="40">
<path d="M104 0H0V40H104V0Z" fill="white"/>
</mask>
<g mask="url(#mask1_148_191)">
<path d="M75.4198 25.5402C75.8869 25.5402 76.321 25.4651 76.7221 25.315C77.1226 25.1655 77.4728 24.9738 77.7738 24.7406C78.0748 24.5073 78.3248 24.2536 78.5251 23.9788C78.7253 23.704 78.8758 23.4416 78.976 23.1916V21.4429C78.1078 21.2928 77.3061 21.2177 76.571 21.2177C75.8359 21.2177 75.2015 21.2971 74.6673 21.4553C74.1331 21.6135 73.7152 21.8591 73.4148 22.1923C73.1138 22.5254 72.9639 22.959 72.9639 23.4912C72.9639 24.0235 73.1517 24.5203 73.5273 24.9279C73.9036 25.3361 74.533 25.5402 75.4186 25.5402M71.7113 15.4716C72.4284 15.0554 73.2388 14.7558 74.1406 14.5721C75.0423 14.3891 75.9267 14.2973 76.7961 14.2973C77.6656 14.2973 78.3447 14.4307 78.8876 14.6968C79.4299 14.9636 79.856 15.3091 80.1651 15.734C80.4735 16.1589 80.6825 16.6422 80.7913 17.1831C80.8995 17.7246 80.9536 18.2699 80.9536 18.8195C80.9536 19.4529 80.9362 20.1272 80.9033 20.8437C80.8697 21.5595 80.8448 22.276 80.828 22.9925C80.828 23.8256 80.8784 24.6165 80.9785 25.3659H82.6565V26.9899H79.3485L79.1246 25.1159H78.999C78.8988 25.266 78.7483 25.4577 78.5468 25.6903C78.3453 25.9241 78.0816 26.1524 77.7551 26.3776C77.4292 26.6022 77.0312 26.7988 76.5623 26.9651C76.0934 27.1313 75.5405 27.215 74.9036 27.215C73.6648 27.215 72.6846 26.8987 71.9638 26.2653C71.2443 25.6326 70.8836 24.766 70.8836 23.6674C70.8836 22.8175 71.072 22.1104 71.4489 21.5434C71.8258 20.977 72.3662 20.544 73.0696 20.2444C73.7736 19.9448 74.6232 19.7692 75.6201 19.7196C76.6164 19.6694 77.7346 19.7364 78.9741 19.92C79.0574 19.1539 79.0699 18.5168 79.012 18.0088C78.9536 17.5007 78.8192 17.0969 78.6096 16.7973C78.4001 16.4976 78.1071 16.2849 77.7303 16.1602C77.3527 16.0355 76.8876 15.9728 76.3353 15.9728C75.5809 15.9728 74.8601 16.0771 74.1735 16.2855C73.4863 16.4939 72.8743 16.7061 72.3389 16.9226L71.7101 15.4735L71.7113 15.4716Z" fill="black"/>
<path d="M98.2889 16.046C97.7883 16.046 97.3156 16.1372 96.8735 16.3202C96.4307 16.5026 96.0382 16.7433 95.6962 17.0429C95.3535 17.3419 95.0736 17.6744 94.8566 18.0398C94.6395 18.4051 94.5064 18.7705 94.4561 19.1359V24.8175C94.823 25.0668 95.2366 25.2622 95.6962 25.4037C96.1545 25.5451 96.7603 25.6152 97.5115 25.6152C98.848 25.6152 99.9159 25.1797 100.718 24.3069C101.519 23.4348 101.92 22.1594 101.92 20.4814C101.92 19.0695 101.64 17.9771 101.081 17.2048C100.521 16.4325 99.5906 16.046 98.2877 16.046M92.5263 18.8691C92.5263 18.719 92.5219 18.5236 92.5138 18.2817C92.5051 18.0404 92.4927 17.791 92.4759 17.5323C92.4597 17.2743 92.4386 17.0206 92.4137 16.7706C92.3888 16.5212 92.359 16.3041 92.3254 16.1211H90.6475V14.4971H93.9791L94.2291 16.2458H94.3541C94.8056 15.6633 95.3771 15.1757 96.0699 14.7843C96.7628 14.3935 97.6104 14.1974 98.6117 14.1974C100.398 14.1974 101.743 14.6887 102.645 15.6713C103.547 16.6546 103.998 18.2618 103.998 20.4938C103.998 21.5428 103.843 22.4888 103.534 23.3293C103.224 24.1705 102.787 24.8826 102.219 25.4651C101.652 26.0482 100.967 26.4979 100.165 26.8143C99.3636 27.13 98.4786 27.2888 97.5097 27.2888C97.1589 27.2888 96.8461 27.2764 96.5706 27.2516C96.2957 27.2268 96.0444 27.1933 95.8193 27.1518C95.5942 27.1102 95.3728 27.0562 95.1557 26.9892C94.9387 26.9229 94.7048 26.8391 94.4542 26.7392V31.986H92.5256V18.8691H92.5263Z" fill="black"/>
</g>
<path d="M39.8947 0L39.8636 7.28327L41.7424 7.31429V0.0310164L39.8947 0Z" fill="black"/>
<path d="M41.7424 18.2141L39.8636 18.1824L39.8947 10.893L41.7424 10.9246V18.2141Z" fill="black"/>
<path d="M41.7424 29.107L39.8636 29.0754L39.8947 21.7928L41.7424 21.8238V29.107Z" fill="black"/>
<path d="M39.8636 39.969L41.7424 40V32.7167L39.8947 32.6863L39.8636 39.969Z" fill="black"/>
</g>
<defs>
<clipPath id="clip0_148_191">
<rect width="104" height="40" fill="white"/>
</clipPath>
</defs>
</svg>
